<?xml version="1.0" encoding="utf-8"?>
<svg xmlns="http://www.w3.org/2000/svg" viewBox="109.1167 143.1718 283.3405 214.297" width="283.3405px" height="214.297px"><g id="object-19"><g><path d="M125.651 159.348C129.991 159.132 134.404 159.226 138.751 159.218C148.71 159.199 158.529 158.986 167.673 163.676C173.882 166.86 178.449 171.887 180.554 178.58C182.885 185.989 181.939 194.881 178.293 201.72C174.366 209.084 166.79 214.681 158.873 217.09C166.875 218.378 173.654 219.12 180.288 224.428C187.074 229.859 190.865 237.26 191.732 245.864C192.613 254.61 190.598 263.531 184.991 270.403C183.156 273.022 180.636 274.946 177.973 276.669Q176.423 277.653 174.791 278.495Q173.159 279.337 171.459 280.03Q169.759 280.724 168.004 281.264Q166.249 281.803 164.453 282.185C152.133 284.832 136.907 284.151 124.301 283.865C120.201 283.771 115.656 284.072 111.65 283.133C110.991 282.979 110.112 282.802 109.793 282.136C109.34 281.188 109.266 279.708 109.226 278.647C108.99 272.341 109.227 265.949 109.232 259.633L109.247 221.25L109.23 185.037C109.218 178.6 108.978 172.075 109.235 165.65C109.291 164.263 109.589 162.975 109.97 161.647C111.685 160.131 122.921 159.498 125.651 159.348ZM151.234 226.827C145.534 227.389 141.285 228.984 137.591 233.554C132.245 240.167 131.693 249.781 132.64 257.91C133.128 262.102 134.896 266.521 138.326 269.146C141.211 271.355 144.696 272.377 148.309 272.196C153.792 271.364 158.599 269.325 161.94 264.72C166.373 258.609 167.757 249.595 166.509 242.262C165.692 237.458 163.542 231.898 159.336 229.06C156.942 227.443 154.041 227.091 151.234 226.827ZM132.61 219.99C136.127 219.102 139.68 217.528 142.626 215.396C151.267 208.645 155.355 201.838 156.767 190.768C157.398 185.822 156.38 179.48 153.265 175.458C151.379 173.022 148.438 171.471 145.388 171.111C144.454 171 143.528 170.988 142.591 171.043C139.158 172.007 135.781 174.397 133.993 177.523C133.371 178.611 132.959 179.74 132.793 180.985C132.117 186.071 132.493 191.674 132.523 196.821L132.61 219.99Z" id="object-0" style="fill: rgb(123, 99, 78);"/><path d="M346.892 196.933Q347.932 196.858 348.975 196.834Q350.018 196.81 351.06 196.837Q352.103 196.864 353.143 196.942Q354.183 197.02 355.218 197.149Q356.253 197.278 357.28 197.458Q358.308 197.638 359.325 197.868Q360.342 198.098 361.347 198.377Q362.352 198.657 363.342 198.985Q364.332 199.314 365.304 199.69Q366.277 200.067 367.23 200.491Q368.183 200.915 369.114 201.385Q370.045 201.855 370.952 202.37Q371.859 202.886 372.739 203.445Q373.62 204.004 374.471 204.605Q375.323 205.207 376.145 205.85Q376.966 206.492 377.755 207.175Q378.544 207.857 379.299 208.577Q380.053 209.297 380.772 210.053Q381.49 210.809 382.17 211.6Q382.851 212.39 383.491 213.213Q384.132 214.036 384.732 214.89Q385.331 215.743 385.888 216.625Q386.445 217.507 386.958 218.415Q387.472 219.323 387.939 220.255Q388.407 221.187 388.829 222.141Q389.251 223.095 389.625 224.068Q390 225.042 390.326 226.032Q390.652 227.023 390.929 228.028Q391.206 229.034 391.434 230.052Q391.661 231.07 391.839 232.097Q392.016 233.125 392.143 234.161Q392.269 235.196 392.345 236.236Q392.421 237.276 392.445 238.319Q392.47 239.362 392.444 240.404Q392.417 241.447 392.34 242.487Q392.262 243.527 392.133 244.562Q392.005 245.597 391.826 246.625Q391.646 247.652 391.417 248.67Q391.188 249.687 390.909 250.692Q390.63 251.697 390.302 252.687Q389.974 253.677 389.598 254.65Q389.222 255.623 388.798 256.576Q388.375 257.529 387.905 258.461Q387.436 259.392 386.921 260.299Q386.406 261.206 385.848 262.087Q385.289 262.968 384.688 263.82Q384.087 264.672 383.445 265.494Q382.802 266.316 382.121 267.105Q381.439 267.895 380.719 268.649Q380 269.404 379.244 270.123Q378.488 270.842 377.698 271.523Q376.908 272.203 376.085 272.845Q375.262 273.486 374.409 274.086Q373.556 274.686 372.675 275.243Q371.793 275.801 370.886 276.315Q369.978 276.828 369.046 277.297Q368.114 277.765 367.16 278.187Q366.207 278.609 365.233 278.984Q364.26 279.359 363.27 279.686Q362.279 280.013 361.274 280.29Q360.269 280.568 359.251 280.796Q358.233 281.024 357.205 281.202Q356.178 281.38 355.142 281.507Q354.107 281.635 353.067 281.711Q352.026 281.787 350.983 281.813Q349.939 281.838 348.896 281.812Q347.853 281.786 346.812 281.708Q345.771 281.631 344.735 281.503Q343.699 281.375 342.671 281.196Q341.643 281.017 340.625 280.788Q339.606 280.559 338.601 280.28Q337.595 280.001 336.604 279.673Q335.613 279.345 334.64 278.969Q333.666 278.593 332.712 278.169Q331.758 277.746 330.826 277.276Q329.894 276.806 328.986 276.291Q328.078 275.776 327.197 275.217Q326.316 274.658 325.463 274.057Q324.61 273.455 323.787 272.813Q322.965 272.17 322.175 271.488Q321.385 270.806 320.63 270.085Q319.874 269.365 319.155 268.609Q318.436 267.852 317.755 267.062Q317.074 266.271 316.432 265.448Q315.791 264.624 315.19 263.771Q314.59 262.917 314.032 262.035Q313.475 261.152 312.961 260.244Q312.447 259.335 311.979 258.403Q311.51 257.47 311.088 256.516Q310.666 255.561 310.291 254.587Q309.916 253.613 309.59 252.622Q309.263 251.63 308.985 250.624Q308.708 249.618 308.48 248.599Q308.252 247.581 308.075 246.552Q307.897 245.524 307.771 244.488Q307.644 243.452 307.568 242.411Q307.492 241.37 307.468 240.327Q307.443 239.283 307.47 238.24Q307.496 237.197 307.574 236.156Q307.652 235.115 307.78 234.079Q307.909 233.044 308.089 232.015Q308.268 230.987 308.498 229.969Q308.728 228.951 309.007 227.945Q309.286 226.94 309.615 225.949Q309.943 224.958 310.32 223.985Q310.697 223.012 311.121 222.058Q311.545 221.104 312.015 220.173Q312.485 219.241 313.001 218.333Q313.516 217.426 314.076 216.545Q314.635 215.663 315.237 214.811Q315.839 213.958 316.482 213.136Q317.125 212.314 317.808 211.525Q318.49 210.735 319.211 209.98Q319.931 209.225 320.688 208.506Q321.445 207.788 322.236 207.107Q323.027 206.426 323.851 205.785Q324.674 205.144 325.529 204.544Q326.383 203.944 327.265 203.387Q328.148 202.83 329.056 202.316Q329.965 201.803 330.898 201.335Q331.831 200.867 332.786 200.445Q333.74 200.024 334.715 199.65Q335.689 199.275 336.68 198.949Q337.672 198.623 338.678 198.346Q339.685 198.069 340.703 197.842Q341.722 197.615 342.75 197.438Q343.779 197.261 344.815 197.135Q345.851 197.008 346.892 196.933ZM338.665 220.305C334.397 219.006 330.976 217.458 326.642 219.803C323.761 221.361 321.885 224.111 321.058 227.231C320.019 231.155 320.641 235.565 322.656 239.087C324.128 241.659 326.69 243.568 328.767 245.627C326.005 247.9 324.001 251.278 323.684 254.867C323.367 258.455 324.441 261.983 326.837 264.698C329.098 267.26 332.449 269.037 335.888 269.211C341.072 269.474 344.853 264.964 351.057 265.044L351.392 265.099C359.083 266.436 362.086 272.73 371.092 266.566C374.021 264.562 375.763 261.681 376.396 258.222C377.024 254.79 376.213 251.416 374.211 248.577C373.369 247.384 372.264 246.422 371.175 245.463C375.327 241.939 378.736 238.493 379.24 232.735C379.548 229.217 378.316 225.118 375.998 222.429C374.138 220.272 370.9 218.387 367.998 218.3C366.136 218.244 364.1 219.746 362.414 219.469C361.463 218.386 361.177 216.532 360.776 215.166C359.303 210.146 355.844 207.181 350.623 206.789C350.211 206.758 349.808 206.791 349.397 206.822C346.171 207.312 343.255 208.517 341.266 211.236C339.241 214.005 338.756 216.973 338.665 220.305Z" id="object-1" style="fill: rgb(123, 99, 78);"/><path d="M349.836 233.357Q350.852 233.389 351.865 233.467C356.915 233.902 357.183 240.687 360.099 243.768C363.102 246.941 367.867 247.314 370.743 250.9C372.261 252.794 372.928 255.139 372.584 257.547C372.239 259.954 370.854 262.05 368.879 263.443C362.606 267.87 357.014 262.119 350.92 261.022L350.514 260.951C346.102 261.484 342.472 264.137 338.141 264.842C335.726 265.234 333.308 265.045 331.291 263.542C329.287 262.049 327.385 259.567 327.129 257.038C326.322 249.059 336.506 247.264 340.335 243.122C342.473 240.81 342.583 237.447 344.587 235.186C346.052 233.533 347.79 233.487 349.836 233.357Z" id="object-2" style="fill: rgb(71, 147, 110);"/><path d="M367.314 222.562C368.724 222.467 369.955 222.678 371.217 223.342C373.053 224.308 374.198 226.059 374.799 228.003C375.752 231.082 375.314 234.513 373.802 237.341C372.501 239.775 370.678 241.23 368.05 242.01C366.499 242.381 364.768 242.113 363.424 241.232C361.607 240.04 360.652 237.934 360.248 235.866C359.61 232.599 359.817 228.591 361.822 225.836C363.288 223.821 364.906 222.943 367.314 222.562Z" id="object-3" style="fill: rgb(71, 147, 110);"/><path d="M331.813 222.57C333.597 222.888 335.17 223.247 336.561 224.48C338.679 226.357 339.239 228.927 339.374 231.632C339.517 234.513 339.496 237.864 337.38 240.084C335.88 241.657 334.217 241.971 332.129 242.079C331.019 241.834 330.008 241.446 329.066 240.797C326.699 239.165 325.236 236.889 324.792 234.047C324.366 231.313 324.352 227.343 326.123 225.077C327.623 223.158 329.526 222.784 331.813 222.57Z" id="object-4" style="fill: rgb(71, 147, 110);"/><path d="M349.583 211.071C350.962 210.912 352.456 211.14 353.677 211.825C355.74 212.983 356.96 215.293 357.498 217.525C358.207 220.466 357.672 224.099 356.077 226.684C354.95 228.511 353.521 229.487 351.449 229.98C349.731 230.159 347.991 230.042 346.498 229.1C344.505 227.841 343.354 225.568 342.898 223.311C342.304 220.367 342.471 216.501 344.256 214C345.671 212.018 347.289 211.43 349.583 211.071Z" id="object-5" style="fill: rgb(71, 147, 110);"/><path d="M 274.859 265.084 C 272.447 261.586 259.136 240.102 257.595 237.615 C 251.796 228.106 245.609 218.857 239.032 209.868 C 237.842 208.219 233.206 203.453 233.088 201.862 C 233.352 201.414 233.627 201.072 234.021 200.738 C 237.664 197.645 248.923 196.592 253.622 197.099 C 256.275 197.385 258.854 198.078 261.048 199.661 C 264.985 202.503 272.118 213.94 275.041 218.604 C 275.923 220.012 289.349 242.424 291.358 245.629 C 300.692 260.519 309.493 275.245 325.109 284.38 C 331.965 288.391 340.209 290.956 348.148 291.493 C 350.513 291.654 351.938 292.111 360.765 291.324 C 362.516 291.35 368.909 289.252 368.288 290.168 C 364.799 295.315 346.94 299.948 340.33 300.091 C 336.716 300.169 325.957 299.153 322.395 298.612 C 308.942 296.568 298.485 291.157 288.751 281.719 C 286.168 279.182 283.715 276.524 281.394 273.745 C 279.073 270.966 276.895 268.079 274.859 265.084 Z" id="object-6" style="fill: rgb(123, 99, 78);"/><path d="M 198.993 203.126 C 199.192 202.828 199.396 202.534 199.606 202.245 C 201.554 199.582 206.852 198.95 210.016 198.489 C 213.32 198.008 223.23 197.363 225.743 199.424 C 226.609 200.134 226.898 201.163 226.899 202.244 C 226.902 206.475 226.018 210.87 225.638 215.096 C 224.904 223.256 223.935 232.545 224.051 240.663 C 224.103 244.329 224.496 248.042 224.883 251.686 C 225.448 257 226.782 264.58 231.33 268.067 C 233.017 269.36 235.216 269.887 237.314 269.594 C 245.547 268.442 253.209 258.67 257.717 252.176 C 259.224 250.005 260.958 247.315 262.302 245.127 C 262.302 245.127 267.091 252.923 268.457 255.066 C 266.589 258.213 258.819 269.682 255.898 273.093 C 254.183 275.095 252.254 276.965 250.373 278.811 C 243.124 285.927 235.689 290.632 225.276 290.495 C 219.381 290.417 214.909 288.296 210.844 284.053 C 198.821 271.503 199.372 244.322 199.172 227.783 C 199.073 219.572 198.854 211.337 198.993 203.126 Z" id="object-7" style="fill: rgb(71, 147, 110);"/><path d="M196.874 143.309C198.165 143.246 199.519 143.117 200.788 143.41C206.212 144.663 209.442 150.526 211.107 155.418C211.459 156.454 211.921 158.87 212.858 159.48C213.291 159.084 213.254 158.477 213.341 157.902Q213.804 154.933 215.013 152.182C216.524 148.734 219.273 145.069 222.926 143.761C225.579 142.811 228.957 143.036 231.493 144.247C233.989 145.44 235.551 147.743 236.376 150.322C239.048 158.665 235.917 169.779 231.993 177.251C231.93 177.377 231.868 177.503 231.804 177.628C229.098 182.889 223.482 188.447 217.757 190.261C213.616 191.573 209.005 191.006 205.22 188.936C197.825 184.892 193.463 176.865 191.179 169.034C189.308 162.622 188.096 153.824 191.578 147.7C192.792 145.565 194.496 143.975 196.874 143.309Z" id="object-8" style="fill: rgb(71, 147, 110);"/><path d="M 277.723 223.053 C 277.723 223.053 282.899 213.585 285.407 209.405 C 295.521 192.549 309.659 179.855 329.764 177.044 C 341.964 175.338 355.266 178.179 365.177 185.665 C 365.713 186.07 366.315 186.54 366.719 187.076 L 366.635 187.946 L 366.841 187.291 C 366.556 187.881 366.605 188.036 365.988 188.242 C 362.194 189.511 356.738 187.714 352.728 187.644 C 348.781 187.597 344.869 187.942 340.991 188.679 C 326.447 191.316 314.146 199.409 303.671 209.51 C 301.114 211.976 298.516 214.509 296.315 217.301 C 293.661 220.67 291.01 224.151 288.47 227.602 C 287.145 229.402 286.722 229.766 283.968 233.426 C 281.863 229.994 279.908 226.684 277.723 223.053 Z" id="object-9" style="fill: rgb(71, 147, 110);"/><path d="M177.518 316.048C178.55 316.03 179.586 316.001 180.617 316.034C183.69 316.132 186.234 317.809 188.282 320.043C191.085 323.1 191.474 327.912 191.195 331.881C190.901 336.07 189.897 340.12 186.525 342.944C184.013 345.047 179.094 346.556 175.812 345.429C174.613 345.017 173.407 344.075 172.153 343.976C171.853 346.491 171.989 349.119 171.98 351.652L172.025 356.625C169.508 356.886 166.794 356.735 164.273 356.594C163.814 349.399 164.059 342.082 164.04 334.875C164.027 329.629 163.657 324.138 164.036 318.914C164.092 318.145 164.149 317.46 164.598 316.811C166.184 316.18 168.182 316.032 169.816 316.586C170.504 316.819 171.063 317.146 171.369 317.838C171.498 318.13 171.604 318.443 171.732 318.739C173.651 317.563 175.286 316.524 177.518 316.048ZM178.225 338.917C180.185 338.109 181.269 336.869 182.047 334.895C183.082 332.268 183.124 328.377 181.95 325.789C181.442 324.67 180.502 323.491 179.307 323.067C178.444 322.761 177.458 322.769 176.555 322.814C174.916 323.206 173.81 323.693 172.937 325.208C171.493 327.714 171.351 332.861 172.159 335.607C172.52 336.835 173.311 337.951 174.488 338.517C175.609 339.056 177.017 339.026 178.225 338.917Z" id="object-10" style="fill: rgb(71, 147, 110);"/><path d="M 310.228 306.038 C 316.209 305.834 328.503 304.999 333.115 308.775 C 335.608 310.817 336.925 313.465 337.22 316.648 C 337.585 320.577 337.183 324.534 334.493 327.633 C 331.241 331.38 327.22 331.803 322.613 332.054 C 320.998 332.215 319.349 332.248 317.727 332.338 C 317.908 336.616 317.834 340.924 317.747 345.205 C 315.018 345.266 312.311 345.321 309.584 345.168 C 309.551 344.961 309.522 344.753 309.497 344.545 C 308.755 338.32 309.347 330.132 309.343 323.643 C 309.34 319.024 308.816 312.108 309.422 307.695 C 309.518 306.997 309.796 306.578 310.228 306.038 Z M 317.809 324.736 C 320.387 325.562 324.774 324.805 325.945 324.03 C 326.291 323.801 328.144 323.051 328.631 321.538 C 329.156 319.817 329.744 317.867 328.027 315.72 C 327.021 314.462 325.31 313.929 323.779 313.768 C 322.361 313.618 318.146 313.585 317.779 314.076 C 317.71 317.631 317.832 321.182 317.809 324.736 Z" id="object-11" style="fill: rgb(71, 147, 110);"/><path d="M 260.681 316.273 C 260.922 316.22 261.165 316.173 261.408 316.132 C 261.651 316.091 261.896 316.056 262.141 316.027 C 262.386 315.998 262.632 315.975 262.879 315.958 C 263.126 315.941 263.372 315.93 263.619 315.925 C 263.866 315.92 264.113 315.922 264.36 315.929 C 264.607 315.937 264.853 315.951 265.099 315.97 C 265.346 315.99 265.591 316.016 265.836 316.047 C 266.081 316.079 266.325 316.117 266.568 316.161 C 266.811 316.204 267.053 316.254 267.294 316.31 C 267.534 316.366 267.773 316.428 268.011 316.495 C 268.248 316.562 268.484 316.636 268.718 316.715 C 268.952 316.794 269.184 316.879 269.414 316.97 C 269.643 317.061 269.871 317.157 270.096 317.259 C 270.321 317.361 270.543 317.468 270.763 317.581 C 270.982 317.694 271.199 317.813 271.413 317.936 C 271.627 318.059 271.838 318.188 272.045 318.322 C 272.252 318.456 272.456 318.595 272.657 318.739 C 272.858 318.884 273.055 319.033 273.248 319.186 C 273.441 319.34 273.631 319.499 273.816 319.662 C 274.001 319.825 274.183 319.992 274.36 320.164 C 274.537 320.337 274.71 320.513 274.878 320.694 C 275.047 320.875 275.211 321.059 275.37 321.248 C 275.529 321.437 275.684 321.629 275.834 321.825 C 275.984 322.022 276.129 322.222 276.268 322.425 C 276.408 322.628 276.543 322.835 276.673 323.046 C 276.803 323.256 276.927 323.469 277.046 323.685 C 277.165 323.902 277.279 324.121 277.388 324.343 C 277.496 324.565 277.599 324.789 277.696 325.016 C 277.793 325.243 277.885 325.473 277.971 325.704 C 278.057 325.935 278.137 326.169 278.212 326.405 C 278.287 326.64 278.355 326.877 278.418 327.116 C 278.481 327.355 278.537 327.595 278.588 327.837 C 278.639 328.079 278.684 328.322 278.723 328.565 C 278.762 328.809 278.794 329.054 278.821 329.299 C 278.848 329.545 278.868 329.791 278.883 330.038 C 278.898 330.284 278.906 330.531 278.909 330.778 C 278.912 331.025 278.908 331.272 278.898 331.519 C 278.888 331.766 278.872 332.012 278.851 332.258 C 278.829 332.504 278.801 332.749 278.767 332.994 C 278.733 333.239 278.693 333.482 278.647 333.725 C 278.601 333.968 278.549 334.209 278.491 334.449 C 278.433 334.689 278.369 334.927 278.299 335.164 C 278.23 335.401 278.154 335.637 278.073 335.87 C 277.992 336.103 277.904 336.334 277.811 336.563 C 277.718 336.792 277.62 337.018 277.516 337.242 C 277.412 337.466 277.303 337.687 277.188 337.906 C 277.073 338.125 276.953 338.34 276.828 338.553 C 276.702 338.766 276.571 338.975 276.435 339.182 C 276.3 339.388 276.159 339.591 276.013 339.79 C 275.867 339.989 275.716 340.185 275.561 340.377 C 275.405 340.569 275.245 340.757 275.08 340.94 C 274.915 341.124 274.746 341.304 274.572 341.48 C 274.399 341.655 274.221 341.826 274.039 341.993 C 273.856 342.16 273.67 342.323 273.48 342.48 C 273.29 342.637 273.096 342.79 272.898 342.938 C 272.701 343.086 272.5 343.229 272.295 343.368 C 272.09 343.506 271.882 343.639 271.671 343.767 C 271.46 343.894 271.245 344.017 271.027 344.134 C 270.81 344.251 270.59 344.363 270.367 344.469 C 270.144 344.576 269.919 344.677 269.691 344.772 C 269.463 344.867 269.233 344.957 269 345.041 C 268.768 345.124 268.534 345.202 268.298 345.275 C 268.062 345.347 267.824 345.413 267.584 345.474 C 267.345 345.535 267.104 345.589 266.862 345.638 C 266.623 345.686 266.382 345.728 266.141 345.765 C 265.9 345.801 265.657 345.831 265.414 345.856 C 265.171 345.881 264.928 345.899 264.684 345.912 C 264.441 345.925 264.197 345.931 263.952 345.932 C 263.708 345.933 263.464 345.927 263.22 345.916 C 262.977 345.905 262.733 345.888 262.49 345.865 C 262.247 345.842 262.005 345.813 261.763 345.778 C 261.522 345.743 261.281 345.703 261.041 345.656 C 260.802 345.609 260.563 345.557 260.326 345.499 C 260.089 345.44 259.853 345.376 259.62 345.307 C 259.386 345.237 259.154 345.162 258.923 345.081 C 258.693 345 258.465 344.913 258.239 344.821 C 258.013 344.728 257.789 344.631 257.568 344.528 C 257.347 344.425 257.128 344.316 256.912 344.202 C 256.696 344.089 256.483 343.97 256.273 343.845 C 256.062 343.721 255.855 343.592 255.651 343.458 C 255.448 343.323 255.247 343.184 255.05 343.04 C 254.853 342.896 254.659 342.747 254.47 342.594 C 254.28 342.44 254.094 342.282 253.912 342.119 C 253.73 341.956 253.552 341.79 253.378 341.619 C 253.204 341.448 253.034 341.272 252.869 341.092 C 252.704 340.913 252.543 340.729 252.386 340.542 C 252.229 340.355 252.078 340.163 251.931 339.968 C 251.784 339.773 251.641 339.575 251.504 339.373 C 251.367 339.172 251.234 338.967 251.107 338.758 C 250.98 338.55 250.857 338.339 250.74 338.125 C 250.623 337.91 250.511 337.693 250.405 337.474 C 250.298 337.254 250.197 337.032 250.101 336.807 C 250.006 336.582 249.916 336.356 249.831 336.127 C 249.746 335.898 249.667 335.667 249.594 335.434 C 249.521 335.201 249.453 334.967 249.391 334.731 C 249.329 334.494 249.273 334.257 249.223 334.018 C 249.173 333.779 249.129 333.539 249.09 333.298 C 249.051 333.057 249.019 332.816 248.992 332.573 C 248.965 332.33 248.944 332.087 248.929 331.843 C 248.914 331.599 248.905 331.355 248.902 331.111 C 248.899 330.867 248.902 330.623 248.911 330.379 C 248.92 330.135 248.935 329.891 248.956 329.648 C 248.977 329.405 249.003 329.162 249.036 328.921 C 249.069 328.679 249.107 328.438 249.152 328.198 C 249.196 327.957 249.246 327.718 249.302 327.481 C 249.358 327.244 249.42 327.008 249.488 326.773 C 249.555 326.538 249.629 326.305 249.708 326.074 C 249.787 325.843 249.871 325.614 249.961 325.387 C 250.051 325.16 250.147 324.936 250.248 324.714 C 250.349 324.491 250.456 324.272 250.567 324.055 C 250.679 323.838 250.796 323.623 250.919 323.412 C 251.041 323.201 251.168 322.993 251.301 322.788 C 251.433 322.583 251.57 322.381 251.713 322.183 C 251.855 321.984 252.002 321.789 252.154 321.598 C 252.305 321.407 252.462 321.219 252.623 321.036 C 252.784 320.853 252.949 320.673 253.119 320.497 C 253.288 320.322 253.462 320.151 253.64 319.984 C 253.819 319.817 254.001 319.654 254.186 319.496 C 254.372 319.338 254.562 319.184 254.756 319.035 C 254.949 318.886 255.146 318.742 255.347 318.603 C 255.547 318.464 255.751 318.329 255.958 318.2 C 256.165 318.071 256.375 317.947 256.588 317.828 C 256.801 317.709 257.017 317.595 257.236 317.486 C 257.455 317.377 257.676 317.274 257.9 317.177 C 258.123 317.079 258.349 316.987 258.578 316.9 C 258.806 316.813 259.036 316.732 259.268 316.657 C 259.501 316.582 259.735 316.512 259.97 316.448 C 260.205 316.384 260.442 316.326 260.681 316.273 Z M 263.8 322.865 C 252.23 323.977 254.95 339.792 264.796 339.012 C 276.116 338.115 273.449 321.937 263.8 322.865 Z" id="object-12" style="fill: rgb(71, 147, 110);"/><path d="M 111.499 306.087 C 117.383 306.11 127.427 305.381 132.863 306.334 C 133.756 307.896 133.999 311.326 133.08 313.031 C 130.558 313.966 120.751 313.478 117.562 313.379 C 117.594 316.292 117.649 319.204 117.727 322.115 C 121.332 321.876 125.791 321.761 129.364 322.195 C 129.93 322.264 130.951 322.175 131.031 322.809 C 131.736 328.372 131.073 327.487 130.871 328.959 C 126.549 329.218 122.159 329.057 117.828 329.029 C 117.717 330.238 117.737 331.473 117.71 332.687 L 117.671 338.254 C 122.146 338.282 126.796 338 131.246 338.232 C 131.873 338.264 132.934 338.404 133.309 338.989 C 134.015 340.091 133.756 343.509 133.412 344.765 C 133.235 344.909 133.214 344.945 132.968 345.038 C 131.849 345.463 112.127 345.4 111.049 344.994 C 110.189 344.67 109.657 344.159 109.338 343.276 C 109.122 342.678 109.144 311.488 109.253 308.619 C 109.277 307.981 109.362 307.534 109.616 306.954 C 110.186 306.326 110.709 306.255 111.499 306.087 Z" id="object-13" style="fill: rgb(71, 147, 110);"/><path d="M 350.581 316.056 C 354.31 315.883 357.741 315.951 360.865 318.356 C 364.182 320.911 365.401 324.562 365.834 328.555 C 365.992 330.012 366.054 331.478 365.104 332.674 C 363.124 333.783 350.509 333.385 347.489 333.247 C 347.482 335.641 348.164 337.268 350.425 338.309 C 355.576 340.682 360.308 339.253 363.051 337.702 C 363.169 337.636 363.32 337.672 363.454 337.657 C 363.729 338.124 363.983 338.626 364.146 339.145 C 364.51 340.297 364.596 342.183 363.918 343.254 C 363.16 344.45 361.619 345.005 360.31 345.306 C 355.34 346.45 349.322 346.024 344.937 343.277 C 342.011 341.445 340.569 338.837 339.834 335.524 C 338.776 330.758 339.295 325.417 342.066 321.257 C 344.174 318.093 347.001 316.808 350.581 316.056 Z M 348.84 323.993 C 347.472 325.13 347.372 326.522 347.323 327.935 C 349.534 327.845 351.749 327.907 353.96 327.94 C 355.122 327.89 357.225 328.193 358.227 327.696 C 358.518 327.201 358.565 326.747 358.497 326.125 C 358.35 324.788 356.501 323.411 355.029 322.888 C 354.035 322.535 352.861 322.485 351.825 322.521 C 350.706 322.709 349.776 323.179 348.84 323.993 Z" id="object-14" style="fill: rgb(71, 147, 110);"/><path d="M 203.648 316.095 C 204.07 316.035 203.868 316.053 204.354 316.038 C 208.503 315.913 212.984 315.71 216.173 318.889 C 217.414 320.126 218.193 321.659 218.593 323.356 C 219.631 327.765 218.989 339.876 218.961 345.158 C 217.181 345.47 215 345.791 213.248 345.238 C 212.378 344.963 211.75 344.521 211.356 343.683 C 211.287 343.536 211.224 343.385 211.158 343.236 C 210.388 343.208 208.207 344.813 207.37 345.167 C 204.608 346.336 201.395 345.968 198.692 344.839 C 196.655 343.528 195.463 342.109 194.817 339.718 C 194.151 337.254 194.35 334.357 195.7 332.151 C 197.902 328.553 203.138 327.651 207.028 327.359 C 208.358 327.259 209.727 327.421 211.032 327.136 L 211.277 326.695 C 211.17 325.426 210.835 324.137 209.788 323.311 C 206.942 321.066 202.002 323.527 198.862 323.647 C 198.164 323.674 197.876 323.553 197.354 323.115 C 197.026 322.061 196.621 319.093 197.201 318.169 C 198.252 316.494 201.855 316.341 203.648 316.095 Z M 205.098 333.025 C 203.497 333.269 203.048 334.031 202.551 335.025 C 202.102 336.119 202.174 337.442 202.822 338.523 C 203.392 339.474 204.416 339.931 205.372 340.012 C 206.822 340.09 208.413 339.761 209.488 338.717 C 211.062 337.187 211.175 334.928 211.308 332.878 L 209.237 332.877 L 205.098 333.025 Z" id="object-15" style="fill: rgb(71, 147, 110);"/><path d="M 235.375 316.066 C 238.414 315.924 242.792 315.686 245.539 317.21 C 246.161 317.556 246.464 317.899 246.633 318.607 C 246.979 320.046 246.85 322.275 246.079 323.56 C 244.486 324.405 241.8 323.179 240.024 322.985 C 238.185 322.785 235.918 322.942 234.446 324.198 C 232.798 325.605 232.4 328.384 232.316 330.448 C 232.187 333.613 233.203 336.019 235.343 338.299 C 240.844 340.255 244.002 337.048 246.238 337.952 C 246.646 338.477 246.779 338.866 246.84 339.514 C 246.963 340.816 247.138 342.851 246.172 343.86 C 244.591 345.51 239.734 345.869 237.476 345.978 C 237.476 345.978 235.893 346.794 237.19 347.878 C 238.476 348.952 241.521 350.129 242.195 351.405 C 242.182 352.549 242.547 353.535 241.935 354.533 C 241.073 355.937 239.924 356.908 238.373 357.21 C 236.047 357.663 232.222 357.633 230.265 356.201 C 229.67 355.766 229.225 355.136 229.215 354.371 C 229.205 353.669 229.451 353.266 229.892 352.758 C 231.663 351.859 232.645 353.24 234.553 353.596 C 235.884 354.188 237.751 353.801 238.256 353.315 C 238.632 352.953 238.469 352.238 238.501 351.686 C 237.226 350.588 235.166 350.661 233.731 349.641 C 232.938 348.336 233.374 346.981 233.638 345.582 C 231.959 344.958 230.267 344.287 228.802 343.236 C 226.115 341.311 224.855 338.305 224.299 335.148 C 223.512 330.671 224.027 324.963 226.773 321.199 C 228.869 318.326 231.871 316.573 235.375 316.066 Z" id="object-16" style="fill: rgb(71, 147, 110);"/><path d="M373.263 308.323C374.914 308.271 378.474 307.686 379.672 308.965C380.774 310.143 380.267 315.038 380.311 316.671C382.771 316.791 385.23 316.803 387.692 316.821L387.718 317.05C387.96 319.05 387.85 321.057 387.792 323.066L380.251 323.058C380.204 326.81 379.72 331.224 380.283 334.896C380.479 336.172 381.006 337.421 382.122 338.145C383.873 339.282 385.714 338.769 387.613 338.407C387.869 340.201 387.934 341.929 387.934 343.741C387.807 344.216 387.666 344.355 387.353 344.72C385.826 345.441 384.101 345.77 382.42 345.852C379.853 345.978 377.007 345.606 375.068 343.763C371.131 340.021 372.241 328.4 372.162 323.274L368.034 323.186C368.012 322.005 367.841 320.849 367.767 319.673C367.714 318.839 367.683 317.811 368.379 317.206C369.306 316.4 371.34 316.64 372.501 316.644C372.448 315.082 372.287 313.523 372.274 311.959C372.263 310.565 372.249 309.364 373.263 308.323Z" id="object-17" style="fill: rgb(71, 147, 110);"/><path d="M 146.009 316.056 C 146.536 316.033 147.063 316.015 147.59 316.003 C 149.983 315.95 155.366 315.904 157.078 317.758 C 157.898 318.646 157.286 322.665 157.211 323.936 C 155.715 323.707 154.139 322.609 152.784 322.082 C 151.434 321.557 150.69 321.475 149.159 321.38 C 148.157 321.424 147.115 321.883 146.374 322.158 C 145.601 322.445 145.405 323.666 145.293 324.336 C 146.305 327.482 152.472 328.065 155.279 329.796 C 157.253 331.013 158.576 332.643 159.053 334.943 C 159.528 337.239 159.251 339.714 157.871 341.658 C 155.905 344.426 152.84 345.018 149.73 345.598 C 147.119 345.881 141.133 346.065 139.006 344.274 C 138.222 343.613 137.946 342.573 137.874 341.592 C 137.791 340.48 137.923 338.478 138.75 337.633 C 139.006 337.372 139.131 337.562 139.43 337.686 C 141.945 338.725 144.281 339.771 147.051 339.595 C 148.601 339.496 150.133 339.26 151.195 338.047 C 151.305 337.624 151.437 337.38 151.324 336.942 C 150.459 333.586 144.141 333.181 141.457 331.572 C 139.705 330.522 138.579 329.063 138.141 327.057 C 137.617 324.663 137.895 322.13 139.256 320.059 C 140.87 317.606 143.264 316.656 146.009 316.056 Z" id="object-18" style="fill: rgb(71, 147, 110);"/></g></g></svg>